<?xml version="1.0" encoding="UTF-8"?>
<svg width="600" height="162.15" version="1.1" viewBox="0 0 600 162.15" xmlns="http://www.w3.org/2000/svg">
  <path d="m82.502 151.7c-9.0258 1.585-18.21 2.0602-27.711 3.3258l-28.979-84.877v88.519c-9.0258 0.9498-17.26 2.2166-25.811 3.4834v-162.15h24.07l32.937 92.004v-92.004h25.495zm49.881-92.319c9.8186 0 24.862-0.47519 33.888-0.47519v25.336c-11.244 0-24.386 0-33.888 0.47519v37.689c14.886-0.9498 29.771-2.2178 44.814-2.693v24.385l-70.151 5.5436v-149.64h70.151v25.337h-44.814zm139.03-34.045h-26.286v116.55c-8.5512 0-17.102 0-25.335 0.31582v-116.86h-26.286v-25.337h77.909zm41.171 32.304h34.68v25.336h-34.68v57.483h-24.863v-140.46h70.786v25.337h-45.923zm87.094 60.649c14.411 0.31582 28.978 1.4262 43.072 2.2166v25.02c-22.644-1.4262-45.289-2.8494-68.408-3.3258v-142.2h25.336zm64.45 28.979c8.076 0.47578 16.627 0.95098 24.861 1.8996v-149.17h-24.861zm135.87-147.27-32.146 77.118 32.146 85.035c-9.5022-1.2668-19.003-3.0088-28.505-4.5926l-18.21-46.871-18.526 43.072c-9.1863-1.585-18.054-2.0602-27.237-3.327l32.62-74.268-29.454-76.167h27.236l16.627 42.597 17.736-42.597z" fill="#d81f26"/>
</svg>
